<?xml version="1.0" encoding="utf-8"?>
<!-- Generator: Adobe Illustrator 24.1.0, SVG Export Plug-In . SVG Version: 6.00 Build 0)  -->
<svg version="1.1" id="Calque_1" xmlns="http://www.w3.org/2000/svg" xmlns:xlink="http://www.w3.org/1999/xlink" x="0px" y="0px"
	 viewBox="0 0 172 200" style="enable-background:new 0 0 172 200;" xml:space="preserve">
<style type="text/css">
	.st0{fill:none;}
	.st1{display:none;}
	.st2{display:inline;fill:none;}
	.st3{fill-rule:evenodd;clip-rule:evenodd;}
	.st4{fill-rule:evenodd;clip-rule:evenodd;fill:#FFFFFF;}
	.st5{fill-rule:evenodd;clip-rule:evenodd;fill:#ED1C24;}
</style>
<g>
	<rect id="canvas_background" x="-1" y="-1" class="st0" width="173" height="202"/>
	<g id="canvasGrid" class="st1">
		<rect x="-0.8" y="0" class="st2" width="172.6" height="200"/>
	</g>
</g>
<g>
	<g id="svg_10">
		<circle id="svg_5" class="st3" cx="86" cy="101" r="67.3"/>
		<g id="svg_6" transform="matrix(0.19335385911828232,0,0,0.19335385911828232,-2005.5116750017914,-1482.8012332622748) ">
			<path id="svg_7" class="st4" d="M10943.5,8217.1c-12,58.9-64.1,103.2-126.5,103.2c-62.4,0-114.5-44.3-126.5-103.2H10511
				c13.2,157.5,145.1,281.2,306,281.2c160.9,0,292.9-123.7,306-281.2H10943.5z"/>
			<path id="svg_8" class="st4" d="M10817,8100.8c-49.9,0-90.4,40.5-90.4,90.4c0,49.9,40.5,90.4,90.4,90.4
				c49.9,0,90.4-40.5,90.4-90.4C10907.4,8141.3,10866.9,8100.8,10817,8100.8z M10817,8235.8c-24.6,0-44.6-20-44.6-44.6
				c0-24.6,20-44.6,44.6-44.6c24.6,0,44.6,20,44.6,44.6C10861.6,8215.8,10841.6,8235.8,10817,8235.8z"/>
		</g>
		<path id="svg_9" class="st5" d="M86,76c12.1,0,22.1,8.6,24.5,20h34.7c-2.5-30.5-28.1-54.4-59.2-54.4c-31.1,0-56.6,23.9-59.2,54.4
			h34.7C63.9,84.6,73.9,76,86,76z"/>
	</g>
</g>
</svg>
